# xmcd
#
# Track frame offsets:
#	150
#	17567
#	32275
#	49837
#	64997
#	80417
#	95895
#	112945
#	131797
#	143505
#	155520
#	170855
#	186600
#	197982
#	214585
#	217350
#
# Disc length: 2928
#
# Revision: 1
# Processed by: cddbd v1.5.1PL0 Copyright (c) Steve Scherf et al.
# Submitted via: VisiTrax 2.9.5.180 - For more info visit www.synapsa.com
# Normalized: r0:DSETVAR1
#
DISCID=f40b6e10
DTITLE=Various Artist - CDX 109 May 1995
DYEAR=1995
DGENRE=
TTITLE0=Wesley Dennis - Don't make me feel at home
TTITLE1=Tanya Tucker - Find out what's happening
TTITLE2=Alan Jackson - I don't even know your name
TTITLE3=Joe Diffie - I'm in love with a capital U
TTITLE4=Pam Tillis - In between dances
TTITLE5=Kim Richey - Just my luck
TTITLE6=Daron Norwood - My girl friday
TTITLE7=George Jones - Tammy Wynette - One
TTITLE8=John Michael Montgomery - Sold (the grundy county auction incident)
TTITLE9=Dean Chance - Stnding up for freedom
TTITLE10=Philip Claypool - Swinging on my baby's chain
TTITLE11=Tracy Byrd - Walking to Jerusalem
TTITLE12=Confederate Railroad - When and where
TTITLE13=Exile - How bad can it be
TTITLE14=Bob Howdy - Liner
TTITLE15=Vince Gill - Liner
EXTD=
EXTT0=
EXTT1=
EXTT2=
EXTT3=
EXTT4=
EXTT5=
EXTT6=
EXTT7=
EXTT8=
EXTT9=
EXTT10=
EXTT11=
EXTT12=
EXTT13=
EXTT14=
EXTT15=
PLAYORDER=
